GIL08_slow_20kg_backpack_grf_custom.mot																		
version=4																		
nRows=81																		
nColumns=19																		
inDegrees=yes																		
endheader																		
																		
time	     ground_force_vx	     ground_force_vy	     ground_force_vz	     ground_force_px	     ground_force_py	     ground_force_pz	     1_ground_force_vx	     1_ground_force_vy	     1_ground_force_vz	     1_ground_force_px	     1_ground_force_py	     1_ground_force_pz	     ground_torque_x	     ground_torque_y	     ground_torque_z	     1_ground_torque_x	    1_ground_torque_y	     1_ground_torque_z
0.21666671	0	0	0	-1.69904846	0	0.049065495	-64.16096666	706.748911	18.29981972	-2.1081499	0	-0.049065495	0	0	0	0	0.910421483	0
0.22500004	0	0	0	-1.69447913	0	0.048914885	-61.73991667	713.1025954	18.66610921	-2.10793188	0	-0.049051755	0	0	0	0	0.91687257	0
0.23333338	0	0	0	-1.69031042	0	0.048785735	-58.99488044	719.1879085	19.38046944	-2.10767773	0	-0.049096685	0	0	0	0	0.930668527	0
0.2416667	0	0	0	-1.68652979	0	0.048679135	-56.16348164	723.2329043	20.35953915	-2.10741064	0	-0.049192825	0	0	0	0	0.946894858	0
0.25000003	0	0	0	-1.68308533	0	0.048581455	-53.30449688	725.2867773	21.420296	-2.10714014	0	-0.049314605	0	0	0	0	0.958128374	0
0.25833338	0	0	0	-1.67992993	0	0.048491825	-50.35337076	726.3092839	22.35675433	-2.10686646	0	-0.049427885	0	0	0	0	0.963902667	0
0.26666671	0	0	0	-1.67704199	0	0.048409725	-47.29692339	727.1680032	23.02171439	-2.10657178	0	-0.049512775	0	0	0	0	0.965609134	0
0.27500004	0	0	0	-1.67443958	0	0.048343015	-44.25759887	728.2310144	23.33458115	-2.10624512	0	-0.049562345	0	0	0	0	0.961310338	0
0.28333336	0	0	0	-1.67214453	0	0.048316865	-41.34585471	729.6282905	23.24369549	-2.10588184	0	-0.049580385	0	0	0	0	0.952087946	0
0.29166672	0	0	0	-1.67014258	0	0.048354555	-38.55657299	731.5591514	22.7737789	-2.10547388	0	-0.049570955	0	0	0	0	0.941941962	0
0.30000004	0	0	0	-1.66842615	0	0.048459625	-35.82623506	734.1444056	22.07906484	-2.10499341	0	-0.049542545	0	0	0	0	0.936501972	0
0.30833337	0	0	0	-1.666979	0	0.048625155	-33.15583998	737.200417	21.38145324	-2.1044043	0	-0.049504975	0	0	0	0	0.935622298	0
0.31666672	0	0	0	-1.66575024	0	0.048834445	-30.63789707	740.469815	20.83701539	-2.10367676	0	-0.049466645	0	0	0	0	0.93591832	0
0.32500005	0	0	0	-1.66469202	0	0.049066835	-28.34954945	743.8147407	20.5045767	-2.10281738	0	-0.049429705	0	0	0	0	0.933333832	0
0.33333337	0	0	0	-1.66378394	0	0.049312045	-26.24478488	747.0727421	20.38180909	-2.1018562	0	-0.049398985	0	0	0	0	0.919394463	0
0.3416667	0	0	0	-1.66302234	0	0.049565525	-24.2008924	750.1257345	20.40376654	-2.10082227	0	-0.049373185	0	0	0	0	0.885063092	0
0.35000002	0	0	0	-1.66240234	0	0.049823215	-22.11829459	753.0026117	20.48761489	-2.09973193	0	-0.049338625	0	0	0	0	0.82102411	0
0.35833338	0	0	0	-1.6619176	0	0.050081815	-19.97561987	755.80161	20.57566899	-2.09856519	0	-0.049280705	0	0	0	0	0.724232344	0
0.3666667	0	0	0	-1.66155176	0	0.050337675	-17.81062806	758.5173799	20.63844449	-2.0972876	0	-0.049203405	0	0	0	0	0.597621302	0
0.37500006	0	0	0	-1.6612583	0	0.050596465	-15.67653349	761.1149933	20.65181054	-2.09587769	0	-0.049119535	0	0	0	0	0.445587297	0
0.38333338	0	0	0	-1.66100684	0	0.050867825	-13.65087639	763.6074576	20.57740716	-2.09432495	0	-0.049023525	0	0	0	0	0.279373352	0
0.39166671	0	0	0	-1.66079004	0	0.051164305	-11.7885397	766.011026	20.35656649	-2.0926626	0	-0.048908565	0	0	0	0	0.109011304	0
0.40000004	0	0	0	-1.66060547	0	0.051496825	-9.994696568	768.3505955	19.93588324	-2.09095483	0	-0.048776155	0	0	0	0	-0.059501183	0
0.40833336	0	0	0	-1.66045447	0	0.051858485	-8.113113059	770.6025668	19.30933036	-2.08923828	0	-0.048641725	0	0	0	0	-0.220472316	0
0.41666669	0	0	0	-1.66034656	0	0.052229885	-6.110251473	772.3966775	18.59988286	-2.08749658	0	-0.048529165	0	0	0	0	-0.370955849	0
0.42500004	0	0	0	-1.66028015	0	0.052599515	-4.083391079	773.3494471	17.98898272	-2.08569556	0	-0.048451405	0	0	0	0	-0.515548079	0
0.43333337	0	0	0	-1.66025623	0	0.052963925	-2.168465718	773.4030852	17.59528078	-2.08378638	0	-0.048407535	0	0	0	0	-0.657309936	0
0.44166672	0	0	0	-1.66028223	0	0.053332735	-0.438808813	772.6717488	17.49369667	-2.08172388	0	-0.048393555	0	0	0	0	-0.794724039	0
0.45000005	0	0	0	-1.6603739	0	0.053708375	1.134623227	771.3147832	17.71127797	-2.07951294	0	-0.048401525	0	0	0	0	-0.925445359	0
0.45833337	0	0	0	-1.66054614	0	0.054083435	2.611565721	769.3696562	18.19170898	-2.07719702	0	-0.048420475	0	0	0	0	-1.048509331	0
0.4666667	0	0	0	-1.66078418	0	0.054443455	4.023626071	766.8483294	18.82829122	-2.07479468	0	-0.048434575	0	0	0	0	-1.16132342	0
0.47500005	0	0	0	-1.66102063	0	0.054777805	5.376506689	763.8943587	19.49573017	-2.07228589	0	-0.048428045	0	0	0	0	-1.263254713	0
0.48333338	0	0	0	-1.66116663	0	0.055078645	6.664396373	760.7860088	20.08907653	-2.06962085	0	-0.048395305	0	0	0	0	-1.353445526	0
0.4916667	0	0	0	-1.66115454	0	0.055348445	7.839499611	757.9236901	20.51699351	-2.06674536	0	-0.048336575	0	0	0	0	-1.429265095	0
0.5	0	0	0	-1.66098462	0	0.055589145	8.800365148	755.6971481	20.70118815	-2.06365771	0	-0.048259645	0	0	0	0	-1.488239098	0
0.50833338	0	0	0	-1.66071179	0	0.055816375	9.528035543	754.2497212	20.62713119	-2.06040869	0	-0.048172445	0	0	0	0	-1.528898385	0
0.51666671	0	0	0	-1.66040442	0	0.056051265	10.13014609	753.4768836	20.36801199	-2.05704639	0	-0.048086505	0	0	0	0	-1.550955474	0
0.52500004	0	0	0	-1.66010669	0	0.056305145	10.68351685	753.390538	20.04260696	-2.05357446	0	-0.048009675	0	0	0	0	-1.554929204	0
0.53333336	0	0	0	-1.6598186	0	0.056574645	11.15876167	754.0748407	19.77408736	-2.04993604	0	-0.047935515	0	0	0	0	-1.544652722	0
0.54166675	0	0	0	-1.659495	0	0.056863285	11.43515739	755.6290156	19.6473872	-2.04607178	0	-0.047836185	0	0	0	0	-1.529514556	0
0.55000007	0	0	0	-1.65907617	0	0.057163545	11.41913439	758.1579398	19.69441823	-2.04197449	0	-0.047707485	0	0	0	0	-1.512954347	0
0.5583334	0	0	0	-1.65854822	0	0.057449555	11.1559499	761.4033066	19.89831082	-2.03771143	0	-0.047603185	0	0	0	0	-1.485131325	0
0.56666672	0	0	0	-1.65793738	0	0.057693175	10.92761706	764.6657763	20.24662327	-2.03342822	0	-0.047613735	0	0	0	0	-1.42166768	0
0.57500005	0	0	0	-1.65726172	0	0.057861115	11.09981192	767.4267885	20.69555917	-2.02930176	0	-0.047805575	0	0	0	0	-1.302663434	0
0.58333337	0	0	0	-1.65652271	0	0.057918025	11.72564283	770.0173881	21.20000785	-2.02537097	0	-0.048146145	0	0	0	0	-1.14345001	0
0.5916667	0	0	0	-1.65572986	0	0.057843685	12.48694993	773.5995716	21.74080537	-2.02149353	0	-0.048483155	0	0	0	0	-0.996728049	0
0.60000002	0	0	0	-1.6549104	0	0.057644315	13.21967742	778.9878823	22.33983197	-2.01759595	0	-0.048721525	0	0	0	0	-0.899264475	0
0.60833335	0	0	0	-1.65409412	0	0.057360625	14.01815481	786.2876036	23.01940264	-2.01374536	0	-0.048883595	0	0	0	0	-0.849165396	0
0.61666667	0	0	0	-1.65328369	0	0.057057525	15.00929569	795.428947	23.77203891	-2.01001501	0	-0.049014065	0	0	0	0	-0.830046665	0
0.625	0	0	0	-1.65244482	0	0.056788545	16.24327726	806.4775055	24.54288796	-2.00645093	0	-0.049136125	0	0	0	0	-0.833327384	0
0.63333338	0	0	0	-1.65149402	0	0.056581845	17.70882345	819.5650338	25.2844154	-2.0030813	0	-0.049255415	0	0	0	0	-0.854916244	0
0.64166671	0	0	0	-1.65034717	0	0.056462125	19.40661909	834.7515836	25.98454428	-1.99992761	0	-0.049360005	0	0	0	0	-0.887494465	0
0.65000004	0	0	0	-1.64897168	0	0.056460605	21.39879161	851.7977314	26.64893337	-1.99700891	0	-0.049442415	0	0	0	0	-0.924011005	0
0.65833336	0	0	0	-1.64738403	0	0.056597225	23.80655514	870.1566099	27.26800959	-1.99433923	0	-0.049509145	0	0	0	0	-0.9610211	0
0.66666675	0	0	0	-1.64560889	0	0.056855865	26.73975115	889.1465334	27.81198725	-1.99192175	0	-0.049566555	0	0	0	0	-0.997071051	0
0.67500007	0	0	0	-1.64357312	0	0.057189335	30.27560633	908.0258065	28.25368885	-1.98976624	0	-0.049610905	0	0	0	0	-1.027242956	0
0.6833334	0	0	0	-1.64111804	0	0.057553805	34.4792497	926.0687014	28.64075928	-1.98789258	0	-0.049640355	0	0	0	0	-1.035888485	0
0.69166672	0	0	0	-1.63814453	0	0.057940305	39.40433219	942.6229053	29.05213163	-1.98630847	0	-0.049650205	0	0	0	0	-1.000323971	0
0.70000005	0	0	0	-1.63474219	0	0.058342495	45.06401132	957.1511946	29.34071138	-1.98499792	0	-0.049639195	0	0	0	0	-0.926289467	0
0.70833337	0	0	0	-1.63117566	0	0.058745775	51.05484051	969.2157765	29.10280006	-1.98391272	0	-0.049599185	0	0	0	0	-0.871672367	0
0.7166667	0	0	0	-1.62775659	0	0.059146655	56.78022403	978.3818529	28.13624971	-1.98298169	0	-0.049526615	0	0	0	0	-0.8753475	0
0.72500002	0	0	0	-1.62466614	0	0.059543515	62.24821032	984.1749343	26.43639521	-1.98215283	0	-0.049412235	0	0	0	0	-0.934580414	0
0.73333335	0	0	0	-1.6219635	0	0.059904005	67.43643777	986.2329634	24.21819625	-1.98137683	0	-0.049264285	0	0	0	0	-1.02699508	0
0.74166673	0	0	0	-1.61973633	0	0.060141895	72.16284431	984.3086139	21.8202176	-1.9806178	0	-0.049098515	0	0	0	0	-1.124639949	0
0.75000006	0	0	0	-1.61789673	0	0.060155565	76.45393404	978.1252533	19.59469393	-1.97984814	0	-0.048926455	0	0	0	0	-1.203316353	0
0.75833338	0	0	0	-1.61620374	0	0.059889935	80.34553505	967.4180322	17.7754181	-1.97903992	0	-0.048758465	0	0	0	0	-1.246474687	0
0.76666671	-2.606524938	22.41066521	3.17789593	-1.61457129	0	0.059395245	83.7188795	952.1862319	16.42536298	-1.97817688	0	-0.048599605	0	0.064655937	0	0	-1.244712309	0
0.77500004	-5.181624754	66.24066596	6.616466144	-1.61305896	0	0.058826705	86.4356807	932.4862887	15.45713325	-1.97726672	0	-0.048441285	0	0.168535906	0	0	-1.198712687	0
0.78333336	-7.942424879	125.8256049	10.1878287	-1.61168945	0	0.058289425	88.40314215	908.1448383	14.70375399	-1.97631885	0	-0.048269045	0	0.302464107	0	0	-1.114793861	0
0.79166669	-11.3890855	177.1819922	13.09845234	-1.61036292	0	0.057766085	89.5592367	878.6884071	13.99701842	-1.97531555	0	-0.048063045	0	0.422953247	0	0	-0.992022362	0
0.80000001	-17.49094457	210.1255573	15.64146102	-1.60891772	0	0.057206485	89.84764462	843.8175235	13.14384921	-1.9742262	0	-0.047802845	0	0.510729474	0	0	-0.836707288	0
0.8083334	-26.31927988	232.6718969	17.96942639	-1.60732935	0	0.056658385	89.13715619	804.1576751	11.92886182	-1.97305554	0	-0.047459455	0	0.560435107	0	0	-0.674262147	0
0.81666672	-35.11903601	252.5861081	19.803659	-1.60566187	0	0.056276685	87.28804175	760.9780893	10.24164251	-1.97183936	0	-0.047009155	0	0.561178304	0	0	-0.523761228	0
0.82500005	-41.05734039	275.0058028	20.86785542	-1.6039115	0	0.056167895	84.41973699	715.3393327	8.192731763	-1.97063696	0	-0.046450715	0	0.514813561	0	0	-0.377385557	0
0.83333337	-44.08508842	303.3192766	20.99900572	-1.60188586	0	0.056317565	80.8148846	667.9218806	6.022310384	-1.96951025	0	-0.045792545	0	0.459189433	0	0	-0.220534833	0
0.8416667	-46.54475669	336.8436762	19.81074848	-1.59938501	0	0.056636425	76.58892863	619.1582779	3.939377749	-1.96848535	0	-0.045070515	0	0.467764681	0	0	-0.05228474	0
0.85000002	-50.32103039	371.8943554	16.89587262	-1.59646033	0	0.057024445	71.7581198	569.1652059	2.026432009	-1.9675437	0	-0.044348235	0	0.607533135	0	0	0.111722977	0
0.85833335	-55.16661502	406.1817144	12.47216652	-1.59317493	0	0.057424625	66.65011078	517.7569846	0.284914047	-1.96664856	0	-0.043685125	0	0.866341544	0	0	0.252485414	0
0.86666673	-60.08476292	439.8310871	7.017489991	-1.58964062	0	0.057826695	61.75259858	464.7709077	-1.312013827	-1.96579175	0	-0.043127275	0	1.173083344	0	0	0.361866818	0
0.87500006	-64.64990043	472.4338369	1.333979566	-1.58612524	0	0.058230625	56.96615675	410.5952277	-2.835416474	-1.96504065	0	-0.042698545	0	1.427459515	0	0	0.437568805	0
0.88333338	-68.48121979	501.8242926	-3.698650563	-1.58293799	0	0.058625945	51.51323125	356.0959463	-4.318607034	-1.96444519	0	-0.042412355	0	1.563183344	0	0	0.476737579	0
